<svg width="769" height="130" viewBox="0 0 769 130" fill="none" xmlns="http://www.w3.org/2000/svg">
<g clip-path="url(#clip0_28_65)">
<path d="M0 0H132.404V26H79.4421V130H52.9614V26H0V0Z" fill="#3A1FA1"/>
<path d="M159.149 26H185.63V52H238.591V78H185.63V104H291.553V130H159.149V26ZM185.63 26V0H291.553V26H185.63Z" fill="#68159C"/>
<path d="M318.298 0H450.702V26H397.74V130H371.26V26H318.298V0Z" fill="#3A1FA1"/>
<path d="M583.37 52V26H609.851V52H583.37ZM477.447 0H583.37V26H503.928V52H583.37V78H609.851V130H583.37V78H503.928V130H477.447V0Z" fill="#1B469C"/>
<path d="M663.077 52V26H689.558V52H663.077ZM689.558 130V52H716.039V130H689.558ZM636.596 26V0H663.077V26H636.596ZM716.039 52V26H742.519V52H716.039ZM742.519 26V0H769V26H742.519Z" fill="#1E0A69"/>
</g>
<defs>
<clipPath id="clip0_28_65">
<rect width="769" height="130" fill="white"/>
</clipPath>
</defs>
</svg>
